<svg width="290" height="315" viewBox="0 0 290 315" fill="none" xmlns="http://www.w3.org/2000/svg">
<path fill-rule="evenodd" clip-rule="evenodd" d="M145.019 51.8371L69.7841 0H68V176.106H0.376343L145.019 315L289.662 176.106H222.038V0H220.254L145.019 51.8371ZM144.643 62.8371L79.4078 18H78.6237V185.106H24L145.643 302L266.286 185.106H212.662V18H211.878L144.643 62.8371Z" fill="url(#paint0_linear_2_160)"/>
<path d="M135.063 113.911C135.063 112.307 136.363 111.007 137.968 111.007C139.572 111.007 140.873 112.307 140.873 113.911V131.336C140.873 132.94 139.572 134.241 137.968 134.241V134.27C133.334 135.777 129.308 138.632 126.354 142.373H119.349C122.856 136.312 128.408 131.583 135.063 129.129V113.911Z" fill="url(#paint1_linear_2_160)"/>
<path d="M171.694 142.373C168.187 136.312 162.635 131.583 155.98 129.129V113.911C155.98 112.307 154.68 111.007 153.075 111.007C151.471 111.007 150.17 112.307 150.17 113.911V131.336C150.17 132.94 151.471 134.241 153.075 134.241V134.27C157.71 135.776 161.735 138.632 164.689 142.373H171.694Z" fill="url(#paint2_linear_2_160)"/>
<path d="M142.591 108.102C142.591 106.498 143.892 105.198 145.496 105.198C147.101 105.198 148.402 106.498 148.402 108.102V130.175C148.402 131.779 147.101 133.079 145.496 133.079C143.892 133.079 142.591 131.779 142.591 130.175V108.102Z" fill="url(#paint3_linear_2_160)"/>
<path d="M108.039 125.299C106.905 124.165 106.905 122.326 108.039 121.192C109.174 120.058 111.013 120.058 112.148 121.192L127.761 136.8C128.895 137.934 128.895 139.773 127.761 140.907C126.626 142.041 124.787 142.041 123.652 140.907L108.039 125.299Z" fill="url(#paint4_linear_2_160)"/>
<path fill-rule="evenodd" clip-rule="evenodd" d="M145.496 108.102C149.668 108.102 153.05 104.721 153.05 100.551C153.05 96.3807 149.668 93 145.496 93C141.325 93 137.943 96.3807 137.943 100.551C137.943 104.721 141.325 108.102 145.496 108.102ZM145.496 104.478C147.666 104.478 149.424 102.72 149.424 100.551C149.424 98.3825 147.666 96.6245 145.496 96.6245C143.327 96.6245 141.569 98.3825 141.569 100.551C141.569 102.72 143.327 104.478 145.496 104.478Z" fill="url(#paint5_linear_2_160)"/>
<path fill-rule="evenodd" clip-rule="evenodd" d="M104.823 125.528C108.995 125.528 112.377 122.147 112.377 117.977C112.377 113.806 108.995 110.426 104.823 110.426C100.651 110.426 97.2693 113.806 97.2693 117.977C97.2693 122.147 100.651 125.528 104.823 125.528ZM104.823 121.903C106.992 121.903 108.751 120.145 108.751 117.977C108.751 115.808 106.992 114.05 104.823 114.05C102.654 114.05 100.895 115.808 100.895 117.977C100.895 120.145 102.654 121.903 104.823 121.903Z" fill="url(#paint6_linear_2_160)"/>
<path d="M189.082 147.045C190.687 147.045 191.987 148.345 191.987 149.949C191.987 151.553 190.687 152.853 189.082 152.853H171.651C170.046 152.853 168.745 151.553 168.745 149.949H168.716C167.209 145.316 164.353 141.292 160.611 138.339V131.336C166.673 134.842 171.404 140.393 173.859 147.045H189.082Z" fill="url(#paint7_linear_2_160)"/>
<path d="M160.611 183.664C166.673 180.158 171.404 174.607 173.859 167.955H189.082C190.687 167.955 191.987 166.655 191.987 165.051C191.987 163.447 190.687 162.147 189.082 162.147H171.651C170.046 162.147 168.745 163.447 168.745 165.051H168.716C167.209 169.684 164.353 173.708 160.611 176.661V183.664Z" fill="url(#paint8_linear_2_160)"/>
<path d="M194.893 154.571C196.497 154.571 197.798 155.871 197.798 157.475C197.798 159.079 196.497 160.379 194.893 160.379H172.813C171.208 160.379 169.908 159.079 169.908 157.475C169.908 155.871 171.208 154.571 172.813 154.571H194.893Z" fill="url(#paint9_linear_2_160)"/>
<path d="M177.69 120.03C178.824 118.896 180.664 118.896 181.798 120.03C182.933 121.165 182.933 123.003 181.798 124.138L166.186 139.745C165.051 140.879 163.212 140.879 162.077 139.745C160.942 138.611 160.942 136.772 162.077 135.638L177.69 120.03Z" fill="url(#paint10_linear_2_160)"/>
<path fill-rule="evenodd" clip-rule="evenodd" d="M194.893 157.475C194.893 161.645 198.275 165.026 202.446 165.026C206.618 165.026 210 161.645 210 157.475C210 153.304 206.618 149.924 202.446 149.924C198.275 149.924 194.893 153.304 194.893 157.475ZM198.519 157.475C198.519 159.643 200.277 161.401 202.446 161.401C204.616 161.401 206.374 159.643 206.374 157.475C206.374 155.306 204.616 153.548 202.446 153.548C200.277 153.548 198.519 155.306 198.519 157.475Z" fill="url(#paint11_linear_2_160)"/>
<path fill-rule="evenodd" clip-rule="evenodd" d="M177.461 116.815C177.461 120.985 180.843 124.366 185.015 124.366C189.187 124.366 192.569 120.985 192.569 116.815C192.569 112.645 189.187 109.264 185.015 109.264C180.843 109.264 177.461 112.645 177.461 116.815ZM181.087 116.815C181.087 118.984 182.845 120.742 185.015 120.742C187.184 120.742 188.943 118.984 188.943 116.815C188.943 114.646 187.184 112.888 185.015 112.888C182.845 112.888 181.087 114.646 181.087 116.815Z" fill="url(#paint12_linear_2_160)"/>
<path d="M155.937 201.089C155.937 202.693 154.637 203.994 153.032 203.994C151.428 203.994 150.127 202.693 150.127 201.089V183.664C150.127 182.06 151.428 180.759 153.032 180.759V180.73C157.666 179.223 161.692 176.368 164.646 172.627H171.651C168.144 178.687 162.592 183.417 155.937 185.871V201.089Z" fill="url(#paint13_linear_2_160)"/>
<path d="M119.306 172.627C122.813 178.688 128.365 183.417 135.02 185.871V201.089C135.02 202.693 136.32 203.994 137.925 203.994C139.529 203.994 140.83 202.693 140.83 201.089V183.664C140.83 182.06 139.529 180.759 137.925 180.759V180.73C133.29 179.223 129.265 176.368 126.311 172.627H119.306Z" fill="url(#paint14_linear_2_160)"/>
<path d="M145.478 127.321L145.539 127.321H145.418L145.478 127.321Z" fill="url(#paint15_linear_2_160)"/>
<path d="M148.409 206.898C148.409 208.502 147.108 209.802 145.504 209.802C143.899 209.802 142.598 208.502 142.598 206.898V184.825C142.598 183.221 143.899 181.921 145.504 181.921C147.108 181.921 148.409 183.221 148.409 184.825V206.898Z" fill="url(#paint16_linear_2_160)"/>
<path d="M182.961 189.701C184.095 190.835 184.095 192.674 182.961 193.808C181.826 194.942 179.987 194.942 178.852 193.808L163.239 178.2C162.105 177.066 162.105 175.227 163.239 174.093C164.374 172.959 166.213 172.959 167.348 174.093L182.961 189.701Z" fill="url(#paint17_linear_2_160)"/>
<path fill-rule="evenodd" clip-rule="evenodd" d="M145.504 206.898C141.332 206.898 137.95 210.279 137.95 214.449C137.95 218.619 141.332 222 145.504 222C149.675 222 153.057 218.619 153.057 214.449C153.057 210.279 149.675 206.898 145.504 206.898ZM145.504 210.522C143.334 210.522 141.576 212.28 141.576 214.449C141.576 216.617 143.334 218.375 145.504 218.375C147.673 218.375 149.431 216.617 149.431 214.449C149.431 212.28 147.673 210.522 145.504 210.522Z" fill="url(#paint18_linear_2_160)"/>
<path fill-rule="evenodd" clip-rule="evenodd" d="M186.177 189.472C182.005 189.472 178.623 192.853 178.623 197.023C178.623 201.194 182.005 204.574 186.177 204.574C190.349 204.574 193.731 201.194 193.731 197.023C193.731 192.853 190.349 189.472 186.177 189.472ZM186.177 193.097C184.008 193.097 182.249 194.855 182.249 197.023C182.249 199.192 184.008 200.95 186.177 200.95C188.346 200.95 190.105 199.192 190.105 197.023C190.105 194.855 188.346 193.097 186.177 193.097Z" fill="url(#paint19_linear_2_160)"/>
<path d="M101.918 167.955C100.313 167.955 99.0126 166.655 99.0126 165.051C99.0126 163.447 100.313 162.147 101.918 162.147H119.349C120.954 162.147 122.255 163.447 122.255 165.051L122.284 165.051C123.791 169.684 126.647 173.708 130.389 176.661V183.664C124.327 180.158 119.596 174.607 117.141 167.955H101.918Z" fill="url(#paint20_linear_2_160)"/>
<path d="M130.389 131.336C124.327 134.842 119.596 140.393 117.141 147.045H101.918C100.313 147.045 99.0126 148.345 99.0126 149.949C99.0126 151.553 100.313 152.853 101.918 152.853H119.349C120.954 152.853 122.255 151.553 122.255 149.949L122.284 149.949C123.791 145.316 126.647 141.292 130.389 138.339V131.336Z" fill="url(#paint21_linear_2_160)"/>
<path d="M96.1073 160.429C94.5028 160.429 93.2021 159.129 93.2021 157.525C93.2021 155.921 94.5028 154.621 96.1073 154.621H118.187C119.792 154.621 121.092 155.921 121.092 157.525C121.092 159.129 119.792 160.429 118.187 160.429H96.1073Z" fill="url(#paint22_linear_2_160)"/>
<path d="M113.31 194.97C112.176 196.104 110.336 196.104 109.202 194.97C108.067 193.835 108.067 191.997 109.202 190.862L124.814 175.255C125.949 174.121 127.788 174.121 128.923 175.255C130.058 176.389 130.058 178.228 128.923 179.362L113.31 194.97Z" fill="url(#paint23_linear_2_160)"/>
<path fill-rule="evenodd" clip-rule="evenodd" d="M96.1073 157.525C96.1073 153.355 92.7254 149.974 88.5536 149.974C84.3819 149.974 81 153.355 81 157.525C81 161.696 84.3819 165.076 88.5536 165.076C92.7254 165.076 96.1073 161.696 96.1073 157.525ZM92.4816 157.525C92.4816 155.357 90.723 153.599 88.5537 153.599C86.3844 153.599 84.6258 155.357 84.6258 157.525C84.6258 159.694 86.3844 161.452 88.5537 161.452C90.723 161.452 92.4816 159.694 92.4816 157.525Z" fill="url(#paint24_linear_2_160)"/>
<path fill-rule="evenodd" clip-rule="evenodd" d="M113.539 198.185C113.539 194.015 110.157 190.634 105.985 190.634C101.813 190.634 98.4315 194.015 98.4315 198.185C98.4315 202.355 101.813 205.736 105.985 205.736C110.157 205.736 113.539 202.355 113.539 198.185ZM109.913 198.185C109.913 196.016 108.155 194.258 105.985 194.258C103.816 194.258 102.057 196.016 102.057 198.185C102.057 200.354 103.816 202.112 105.985 202.112C108.155 202.112 109.913 200.354 109.913 198.185Z" fill="url(#paint25_linear_2_160)"/>
<defs>
<linearGradient id="paint0_linear_2_160" x1="44" y1="-14" x2="208" y2="309.5" gradientUnits="userSpaceOnUse">
<stop stop-color="#E1E1E1"/>
<stop offset="1" stop-color="#5300B9"/>
</linearGradient>
<linearGradient id="paint1_linear_2_160" x1="44" y1="-14" x2="208" y2="309.5" gradientUnits="userSpaceOnUse">
<stop stop-color="#E1E1E1"/>
<stop offset="1" stop-color="#5300B9"/>
</linearGradient>
<linearGradient id="paint2_linear_2_160" x1="44" y1="-14" x2="208" y2="309.5" gradientUnits="userSpaceOnUse">
<stop stop-color="#E1E1E1"/>
<stop offset="1" stop-color="#5300B9"/>
</linearGradient>
<linearGradient id="paint3_linear_2_160" x1="44" y1="-14" x2="208" y2="309.5" gradientUnits="userSpaceOnUse">
<stop stop-color="#E1E1E1"/>
<stop offset="1" stop-color="#5300B9"/>
</linearGradient>
<linearGradient id="paint4_linear_2_160" x1="44" y1="-14" x2="208" y2="309.5" gradientUnits="userSpaceOnUse">
<stop stop-color="#E1E1E1"/>
<stop offset="1" stop-color="#5300B9"/>
</linearGradient>
<linearGradient id="paint5_linear_2_160" x1="44" y1="-14" x2="208" y2="309.5" gradientUnits="userSpaceOnUse">
<stop stop-color="#E1E1E1"/>
<stop offset="1" stop-color="#5300B9"/>
</linearGradient>
<linearGradient id="paint6_linear_2_160" x1="44" y1="-14" x2="208" y2="309.5" gradientUnits="userSpaceOnUse">
<stop stop-color="#E1E1E1"/>
<stop offset="1" stop-color="#5300B9"/>
</linearGradient>
<linearGradient id="paint7_linear_2_160" x1="44" y1="-14" x2="208" y2="309.5" gradientUnits="userSpaceOnUse">
<stop stop-color="#E1E1E1"/>
<stop offset="1" stop-color="#5300B9"/>
</linearGradient>
<linearGradient id="paint8_linear_2_160" x1="44" y1="-14" x2="208" y2="309.5" gradientUnits="userSpaceOnUse">
<stop stop-color="#E1E1E1"/>
<stop offset="1" stop-color="#5300B9"/>
</linearGradient>
<linearGradient id="paint9_linear_2_160" x1="44" y1="-14" x2="208" y2="309.5" gradientUnits="userSpaceOnUse">
<stop stop-color="#E1E1E1"/>
<stop offset="1" stop-color="#5300B9"/>
</linearGradient>
<linearGradient id="paint10_linear_2_160" x1="44" y1="-14" x2="208" y2="309.5" gradientUnits="userSpaceOnUse">
<stop stop-color="#E1E1E1"/>
<stop offset="1" stop-color="#5300B9"/>
</linearGradient>
<linearGradient id="paint11_linear_2_160" x1="44" y1="-14" x2="208" y2="309.5" gradientUnits="userSpaceOnUse">
<stop stop-color="#E1E1E1"/>
<stop offset="1" stop-color="#5300B9"/>
</linearGradient>
<linearGradient id="paint12_linear_2_160" x1="44" y1="-14" x2="208" y2="309.5" gradientUnits="userSpaceOnUse">
<stop stop-color="#E1E1E1"/>
<stop offset="1" stop-color="#5300B9"/>
</linearGradient>
<linearGradient id="paint13_linear_2_160" x1="44" y1="-14" x2="208" y2="309.5" gradientUnits="userSpaceOnUse">
<stop stop-color="#E1E1E1"/>
<stop offset="1" stop-color="#5300B9"/>
</linearGradient>
<linearGradient id="paint14_linear_2_160" x1="44" y1="-14" x2="208" y2="309.5" gradientUnits="userSpaceOnUse">
<stop stop-color="#E1E1E1"/>
<stop offset="1" stop-color="#5300B9"/>
</linearGradient>
<linearGradient id="paint15_linear_2_160" x1="44" y1="-14" x2="208" y2="309.5" gradientUnits="userSpaceOnUse">
<stop stop-color="#E1E1E1"/>
<stop offset="1" stop-color="#5300B9"/>
</linearGradient>
<linearGradient id="paint16_linear_2_160" x1="44" y1="-14" x2="208" y2="309.5" gradientUnits="userSpaceOnUse">
<stop stop-color="#E1E1E1"/>
<stop offset="1" stop-color="#5300B9"/>
</linearGradient>
<linearGradient id="paint17_linear_2_160" x1="44" y1="-14" x2="208" y2="309.5" gradientUnits="userSpaceOnUse">
<stop stop-color="#E1E1E1"/>
<stop offset="1" stop-color="#5300B9"/>
</linearGradient>
<linearGradient id="paint18_linear_2_160" x1="44" y1="-14" x2="208" y2="309.5" gradientUnits="userSpaceOnUse">
<stop stop-color="#E1E1E1"/>
<stop offset="1" stop-color="#5300B9"/>
</linearGradient>
<linearGradient id="paint19_linear_2_160" x1="44" y1="-14" x2="208" y2="309.5" gradientUnits="userSpaceOnUse">
<stop stop-color="#E1E1E1"/>
<stop offset="1" stop-color="#5300B9"/>
</linearGradient>
<linearGradient id="paint20_linear_2_160" x1="44" y1="-14" x2="208" y2="309.5" gradientUnits="userSpaceOnUse">
<stop stop-color="#E1E1E1"/>
<stop offset="1" stop-color="#5300B9"/>
</linearGradient>
<linearGradient id="paint21_linear_2_160" x1="44" y1="-14" x2="208" y2="309.5" gradientUnits="userSpaceOnUse">
<stop stop-color="#E1E1E1"/>
<stop offset="1" stop-color="#5300B9"/>
</linearGradient>
<linearGradient id="paint22_linear_2_160" x1="44" y1="-14" x2="208" y2="309.5" gradientUnits="userSpaceOnUse">
<stop stop-color="#E1E1E1"/>
<stop offset="1" stop-color="#5300B9"/>
</linearGradient>
<linearGradient id="paint23_linear_2_160" x1="44" y1="-14" x2="208" y2="309.5" gradientUnits="userSpaceOnUse">
<stop stop-color="#E1E1E1"/>
<stop offset="1" stop-color="#5300B9"/>
</linearGradient>
<linearGradient id="paint24_linear_2_160" x1="44" y1="-14" x2="208" y2="309.5" gradientUnits="userSpaceOnUse">
<stop stop-color="#E1E1E1"/>
<stop offset="1" stop-color="#5300B9"/>
</linearGradient>
<linearGradient id="paint25_linear_2_160" x1="44" y1="-14" x2="208" y2="309.5" gradientUnits="userSpaceOnUse">
<stop stop-color="#E1E1E1"/>
<stop offset="1" stop-color="#5300B9"/>
</linearGradient>
</defs>
</svg>
